<svg width="151" height="23" viewBox="0 0 151 23" fill="none" xmlns="http://www.w3.org/2000/svg">
<path d="M39.0176 3.94885V7.11332H53.7912V3.94885H39.0176ZM42.2812 16.2959H39.0176V19.4321H53.7912V16.2959H42.2812ZM39.0176 10.1083V13.2727H50.8773V10.1083H39.0176Z" fill="#ffffff"/>
<path d="M150.883 10.419C150.301 6.54823 146.833 3.55328 142.666 3.55328C138.091 3.55328 134.361 7.14156 134.361 11.6057C134.361 13.1597 134.828 14.6289 135.614 15.8721C135.848 16.2111 136.11 16.5502 136.372 16.861L138.12 14.8549C137.916 14.5724 137.742 14.2899 137.567 13.9791C137.217 13.2727 137.013 12.4533 137.013 11.6057C137.013 8.58252 139.548 6.12441 142.666 6.12441C145.347 6.12441 147.62 7.96093 148.173 10.419C148.261 10.7863 148.319 11.2102 148.319 11.6057C148.319 11.9165 148.29 12.199 148.232 12.4816C148.144 12.9902 147.97 13.4987 147.766 13.9508C147.62 14.2616 147.445 14.5441 147.241 14.7984L147.212 14.8267C146.979 15.1375 146.717 15.42 146.425 15.6743C146.367 15.7308 146.279 15.7873 146.221 15.8438C146.192 15.8721 146.163 15.8721 146.134 15.9003C146.105 15.9286 146.075 15.9286 146.075 15.9568C146.075 15.9568 146.046 15.9568 146.046 15.9851C145.726 16.2111 145.347 16.4372 144.968 16.5784C144.764 16.6632 144.531 16.748 144.298 16.8327C143.773 16.974 143.249 17.0588 142.666 17.0588C142.113 17.0588 141.559 16.974 141.063 16.8327C140.83 16.7762 140.597 16.6915 140.393 16.5784L138.82 18.415C138.761 18.4715 138.703 18.5562 138.645 18.6127C139.024 18.8105 139.432 19.0083 139.84 19.1496C140.16 19.2626 140.51 19.3756 140.86 19.4321C141.442 19.5734 142.083 19.6299 142.724 19.6299C143.744 19.6299 144.706 19.4604 145.58 19.1496C145.988 19.0083 146.396 18.8105 146.775 18.6127C147.212 18.3867 147.62 18.1042 147.999 17.7934C148.086 17.7086 148.173 17.6521 148.261 17.5673C148.29 17.5391 148.319 17.5108 148.348 17.4826C148.465 17.3696 148.581 17.2848 148.669 17.1718C148.785 17.0588 148.873 16.9457 148.989 16.8327C149.281 16.5219 149.514 16.1829 149.747 15.8438C149.922 15.5895 150.068 15.307 150.213 15.0245C150.242 14.968 150.272 14.9114 150.272 14.8832C150.359 14.7137 150.446 14.5159 150.505 14.3181C150.825 13.4705 151 12.5381 151 11.5775C150.971 11.2102 150.942 10.8146 150.883 10.419Z" fill="#ffffff"/>
<path d="M150.971 11.6057C150.971 12.5664 150.796 13.4988 150.476 14.3464C150.417 14.5442 150.33 14.7137 150.242 14.9115C150.213 14.968 150.184 15.0245 150.184 15.0527C150.038 15.3353 149.893 15.6178 149.718 15.8721C149.485 16.2394 149.223 16.5502 148.96 16.861C148.844 16.974 148.756 17.087 148.64 17.2001C148.523 17.3131 148.436 17.3978 148.319 17.5108H146.046V13.4705L147.212 14.8267L147.241 14.7985C147.445 14.5442 147.62 14.2616 147.766 13.9508C147.999 13.4988 148.144 12.9902 148.232 12.4816C148.29 12.1991 148.319 11.8883 148.319 11.6057C148.319 11.2102 148.261 10.8146 148.174 10.4191H150.883C150.942 10.8146 150.971 11.2102 150.971 11.6057Z" fill="url(#paint0_linear_9_15)"/>
<path d="M150.184 15.0527C150.038 15.3353 149.893 15.6178 149.718 15.8721C149.485 16.2394 149.222 16.5502 148.96 16.861C148.844 16.974 148.756 17.087 148.64 17.2C148.523 17.313 148.436 17.3978 148.319 17.5108C148.203 17.6238 148.086 17.7086 147.969 17.7934C147.591 18.1042 147.183 18.3867 146.746 18.6127C146.687 18.5562 146.629 18.4997 146.571 18.415L144.997 16.5784L142.695 13.9225L140.393 16.5784C140.014 16.4089 139.636 16.2111 139.286 15.9568C139.228 15.9286 139.199 15.8721 139.14 15.8438C139.053 15.7873 138.995 15.7308 138.936 15.6743C138.645 15.42 138.383 15.1375 138.15 14.8267L142.695 9.57141L146.046 13.4705L147.212 14.8267L147.387 15.0527L147.503 15.194C147.824 15.5048 148.261 15.7026 148.756 15.7026C149.368 15.7591 149.864 15.4765 150.184 15.0527Z" fill="#ffffff"/>
<path d="M19.4651 19.4321V10.1365H30.9168C31.791 10.1365 32.4612 9.45835 32.4612 8.63898C32.4612 7.79136 31.7619 7.14152 30.9168 7.14152H21.738L19.4651 3.97705H30.9168C33.5685 3.97705 35.7248 6.06786 35.7248 8.63898C35.7248 11.2101 33.5685 13.3009 30.9168 13.3009H22.7287V19.4603H19.4651V19.4321Z" fill="#ffffff"/>
<path d="M60.9012 10.7016V19.4604H57.6376V3.94885L69.1477 12.8489V3.94885H72.4113V19.4604L60.9012 10.7016Z" fill="#ffffff"/>
<path d="M95.0525 22.7096L85.961 7.39583L81.0948 16.2394H85.116L83.0762 19.4038H75.4126L85.961 0.812622L96.9174 19.2061L95.0525 22.7096Z" fill="#ffffff"/>
<path d="M103.037 19.4321C100.327 19.4321 98.1413 17.3131 98.1413 14.7137V3.94885H101.405V14.7137C101.405 15.5613 102.133 16.2959 103.037 16.2959H109.535C110.409 16.2959 111.167 15.5896 111.167 14.7137V3.94885H114.43V14.7137C114.43 17.3131 112.216 19.4321 109.535 19.4321H103.037Z" fill="#ffffff"/>
<path d="M124.017 19.4321V7.11332H117.519V3.94885H133.779L132.322 7.11332H127.251V19.4321H124.017Z" fill="#ffffff"/>
<path d="M8.27557 3.58154C3.70069 3.58154 0 7.16982 0 11.6057C0 16.0416 3.70069 19.6299 8.27557 19.6299C12.8504 19.6299 16.5511 16.0416 16.5511 11.6057C16.5511 7.16982 12.8504 3.58154 8.27557 3.58154ZM8.27557 16.5502C5.44905 16.5502 3.17618 14.3464 3.17618 11.6057C3.17618 8.86507 5.44905 6.66124 8.27557 6.66124C11.1021 6.66124 13.3749 8.86507 13.3749 11.6057C13.4041 14.3464 11.1021 16.5502 8.27557 16.5502Z" fill="#ffffff"/>
<defs>
<linearGradient id="paint0_linear_9_15" x1="147.794" y1="16.0733" x2="148.737" y2="11.8012" gradientUnits="userSpaceOnUse">
<stop stop-color="#030405"/>
<stop offset="0.7726" stop-color="#ffffff"/>
</linearGradient>
</defs>
</svg>